<?xml version="1.0" encoding="UTF-8" standalone="no"?>
<svg xmlns="http://www.w3.org/2000/svg" version="1.2" baseProfile="tiny" viewBox="0.00 0.00 609.00 447.00">
<g stroke-width="2.00" fill="none" stroke-linecap="butt">
<path stroke="#650102" vector-effect="non-scaling-stroke" d="
  M 11.24 6.04
  C 11.22 6.06 11.04 6.30 11.04 6.37
  Q 10.99 33.43 11.08 106.13
  A 0.23 0.23 0.0 0 0 11.31 106.36
  L 20.48 106.36
  A 0.19 0.19 0.0 0 0 20.67 106.17
  Q 20.57 62.69 20.67 15.91
  Q 20.67 15.80 20.70 15.75
  Q 20.75 15.67 20.81 15.61
  Q 20.87 15.54 20.95 15.50
  Q 21.00 15.47 21.11 15.47
  Q 67.89 15.37 111.37 15.47
  A 0.19 0.19 0.0 0 0 111.56 15.28
  L 111.56 6.11
  A 0.23 0.23 0.0 0 0 111.33 5.88
  Q 38.63 5.79 11.57 5.84
  C 11.50 5.84 11.26 6.02 11.24 6.04"
/>
<path stroke="#650102" vector-effect="non-scaling-stroke" d="
  M 592.45 16.04
  A 0.93 0.93 0.0 0 1 593.38 16.97
  L 593.38 105.97
  A 0.93 0.93 0.0 0 0 594.31 106.90
  L 602.27 106.90
  A 0.93 0.93 0.0 0 0 603.20 105.97
  L 603.20 7.06
  A 0.93 0.93 0.0 0 0 602.27 6.13
  L 504.10 6.13
  A 0.93 0.93 0.0 0 0 503.17 7.06
  L 503.17 15.11
  A 0.93 0.93 0.0 0 0 504.10 16.04
  L 592.45 16.04"
/>
<path stroke="#808080" vector-effect="non-scaling-stroke" d="
  M 136.71 96.01
  L 136.71 64.04
  A 0.60 0.60 0.0 0 0 136.11 63.44
  L 54.34 63.44
  A 0.38 0.37 -90.0 0 0 53.97 63.82
  L 53.97 380.97
  A 0.79 0.78 90.0 0 0 54.75 381.76
  L 136.20 381.76
  A 0.50 0.50 0.0 0 0 136.70 381.26
  L 136.70 136.06
  A 0.26 0.26 0.0 0 1 136.96 135.80
  Q 225.27 135.71 238.70 135.86
  C 256.19 136.05 265.71 149.18 265.77 166.00
  Q 265.80 177.16 265.79 380.91
  A 0.85 0.85 0.0 0 0 266.64 381.76
  L 347.93 381.76
  A 0.48 0.47 90.0 0 0 348.40 381.28
  L 348.40 136.23
  A 0.46 0.45 -90.0 0 1 348.85 135.77
  Q 401.16 135.80 445.33 135.76
  Q 451.35 135.76 454.58 136.45
  C 465.08 138.70 472.76 148.76 475.96 158.48
  Q 477.41 162.86 477.24 171.81
  Q 477.20 173.53 477.23 381.05
  A 0.71 0.71 0.0 0 0 477.94 381.76
  L 559.92 381.76
  A 0.63 0.63 0.0 0 0 560.55 381.13
  Q 560.38 360.07 560.51 162.03
  Q 560.52 150.08 559.79 141.50
  C 557.37 113.13 542.87 87.46 517.14 74.11
  C 502.20 66.35 485.52 63.49 468.75 63.45
  Q 462.24 63.43 376.91 63.44
  A 1.98 1.96 18.7 0 0 375.35 64.20
  L 343.12 106.00
  A 0.68 0.68 0.0 0 1 341.98 105.90
  C 330.42 83.95 306.97 69.78 282.78 65.70
  Q 269.26 63.42 257.00 63.43
  Q 227.65 63.45 165.07 63.43
  A 2.64 2.63 -70.1 0 0 163.01 64.40
  L 137.22 96.19
  A 0.29 0.29 0.0 0 1 136.71 96.01"
/>
<path stroke="#650102" vector-effect="non-scaling-stroke" d="
  M 110.70 439.05
  A 0.81 0.81 0.0 0 0 111.51 438.24
  L 111.51 429.94
  A 0.81 0.81 0.0 0 0 110.70 429.13
  L 21.34 429.13
  A 0.81 0.81 0.0 0 1 20.53 428.32
  L 20.53 339.83
  A 0.81 0.81 0.0 0 0 19.72 339.02
  L 11.93 339.02
  A 0.81 0.81 0.0 0 0 11.12 339.83
  L 11.12 438.24
  A 0.81 0.81 0.0 0 0 11.93 439.05
  L 110.70 439.05"
/>
<path stroke="#650102" vector-effect="non-scaling-stroke" d="
  M 593.09 429.32
  Q 592.84 429.58 592.00 429.58
  Q 547.67 429.59 503.42 429.61
  A 0.18 0.18 0.0 0 0 503.24 429.79
  L 503.24 439.18
  A 0.16 0.16 0.0 0 0 503.40 439.34
  Q 553.25 439.56 602.78 439.37
  Q 602.82 439.37 602.98 439.21
  Q 603.14 439.06 603.14 439.01
  Q 603.33 389.48 603.12 339.63
  A 0.16 0.16 0.0 0 0 602.96 339.47
  L 593.57 339.47
  A 0.18 0.18 0.0 0 0 593.39 339.65
  Q 593.37 383.90 593.35 428.23
  Q 593.35 429.07 593.09 429.32"
/>
</g>
<path fill="#000000" d="
  M 609.00 0.00
  L 609.00 447.00
  L 0.00 447.00
  L 0.00 0.00
  L 609.00 0.00
  Z
  M 11.24 6.04
  C 11.22 6.06 11.04 6.30 11.04 6.37
  Q 10.99 33.43 11.08 106.13
  A 0.23 0.23 0.0 0 0 11.31 106.36
  L 20.48 106.36
  A 0.19 0.19 0.0 0 0 20.67 106.17
  Q 20.57 62.69 20.67 15.91
  Q 20.67 15.80 20.70 15.75
  Q 20.75 15.67 20.81 15.61
  Q 20.87 15.54 20.95 15.50
  Q 21.00 15.47 21.11 15.47
  Q 67.89 15.37 111.37 15.47
  A 0.19 0.19 0.0 0 0 111.56 15.28
  L 111.56 6.11
  A 0.23 0.23 0.0 0 0 111.33 5.88
  Q 38.63 5.79 11.57 5.84
  C 11.50 5.84 11.26 6.02 11.24 6.04
  Z
  M 592.45 16.04
  A 0.93 0.93 0.0 0 1 593.38 16.97
  L 593.38 105.97
  A 0.93 0.93 0.0 0 0 594.31 106.90
  L 602.27 106.90
  A 0.93 0.93 0.0 0 0 603.20 105.97
  L 603.20 7.06
  A 0.93 0.93 0.0 0 0 602.27 6.13
  L 504.10 6.13
  A 0.93 0.93 0.0 0 0 503.17 7.06
  L 503.17 15.11
  A 0.93 0.93 0.0 0 0 504.10 16.04
  L 592.45 16.04
  Z
  M 136.71 96.01
  L 136.71 64.04
  A 0.60 0.60 0.0 0 0 136.11 63.44
  L 54.34 63.44
  A 0.38 0.37 -90.0 0 0 53.97 63.82
  L 53.97 380.97
  A 0.79 0.78 90.0 0 0 54.75 381.76
  L 136.20 381.76
  A 0.50 0.50 0.0 0 0 136.70 381.26
  L 136.70 136.06
  A 0.26 0.26 0.0 0 1 136.96 135.80
  Q 225.27 135.71 238.70 135.86
  C 256.19 136.05 265.71 149.18 265.77 166.00
  Q 265.80 177.16 265.79 380.91
  A 0.85 0.85 0.0 0 0 266.64 381.76
  L 347.93 381.76
  A 0.48 0.47 90.0 0 0 348.40 381.28
  L 348.40 136.23
  A 0.46 0.45 -90.0 0 1 348.85 135.77
  Q 401.16 135.80 445.33 135.76
  Q 451.35 135.76 454.58 136.45
  C 465.08 138.70 472.76 148.76 475.96 158.48
  Q 477.41 162.86 477.24 171.81
  Q 477.20 173.53 477.23 381.05
  A 0.71 0.71 0.0 0 0 477.94 381.76
  L 559.92 381.76
  A 0.63 0.63 0.0 0 0 560.55 381.13
  Q 560.38 360.07 560.51 162.03
  Q 560.52 150.08 559.79 141.50
  C 557.37 113.13 542.87 87.46 517.14 74.11
  C 502.20 66.35 485.52 63.49 468.75 63.45
  Q 462.24 63.43 376.91 63.44
  A 1.98 1.96 18.7 0 0 375.35 64.20
  L 343.12 106.00
  A 0.68 0.68 0.0 0 1 341.98 105.90
  C 330.42 83.95 306.97 69.78 282.78 65.70
  Q 269.26 63.42 257.00 63.43
  Q 227.65 63.45 165.07 63.43
  A 2.64 2.63 -70.1 0 0 163.01 64.40
  L 137.22 96.19
  A 0.29 0.29 0.0 0 1 136.71 96.01
  Z
  M 110.70 439.05
  A 0.81 0.81 0.0 0 0 111.51 438.24
  L 111.51 429.94
  A 0.81 0.81 0.0 0 0 110.70 429.13
  L 21.34 429.13
  A 0.81 0.81 0.0 0 1 20.53 428.32
  L 20.53 339.83
  A 0.81 0.81 0.0 0 0 19.72 339.02
  L 11.93 339.02
  A 0.81 0.81 0.0 0 0 11.12 339.83
  L 11.12 438.24
  A 0.81 0.81 0.0 0 0 11.93 439.05
  L 110.70 439.05
  Z
  M 593.09 429.32
  Q 592.84 429.58 592.00 429.58
  Q 547.67 429.59 503.42 429.61
  A 0.18 0.18 0.0 0 0 503.24 429.79
  L 503.24 439.18
  A 0.16 0.16 0.0 0 0 503.40 439.34
  Q 553.25 439.56 602.78 439.37
  Q 602.82 439.37 602.98 439.21
  Q 603.14 439.06 603.14 439.01
  Q 603.33 389.48 603.12 339.63
  A 0.16 0.16 0.0 0 0 602.96 339.47
  L 593.57 339.47
  A 0.18 0.18 0.0 0 0 593.39 339.65
  Q 593.37 383.90 593.35 428.23
  Q 593.35 429.07 593.09 429.32
  Z"
/>
<path fill="#ca0203" d="
  M 20.81 15.61
  Q 20.75 15.67 20.70 15.75
  Q 20.67 15.80 20.67 15.91
  Q 20.57 62.69 20.67 106.17
  A 0.19 0.19 0.0 0 1 20.48 106.36
  L 11.31 106.36
  A 0.23 0.23 0.0 0 1 11.08 106.13
  Q 10.99 33.43 11.04 6.37
  C 11.04 6.30 11.22 6.06 11.24 6.04
  C 11.26 6.02 11.50 5.84 11.57 5.84
  Q 38.63 5.79 111.33 5.88
  A 0.23 0.23 0.0 0 1 111.56 6.11
  L 111.56 15.28
  A 0.19 0.19 0.0 0 1 111.37 15.47
  Q 67.89 15.37 21.11 15.47
  Q 21.00 15.47 20.95 15.50
  Q 20.87 15.54 20.81 15.61
  Z"
/>
<path fill="#ca0203" d="
  M 592.45 16.04
  L 504.10 16.04
  A 0.93 0.93 0.0 0 1 503.17 15.11
  L 503.17 7.06
  A 0.93 0.93 0.0 0 1 504.10 6.13
  L 602.27 6.13
  A 0.93 0.93 0.0 0 1 603.20 7.06
  L 603.20 105.97
  A 0.93 0.93 0.0 0 1 602.27 106.90
  L 594.31 106.90
  A 0.93 0.93 0.0 0 1 593.38 105.97
  L 593.38 16.97
  A 0.93 0.93 0.0 0 0 592.45 16.04
  Z"
/>
<path fill="#ffffff" d="
  M 136.71 96.01
  A 0.29 0.29 0.0 0 0 137.22 96.19
  L 163.01 64.40
  A 2.64 2.63 -70.1 0 1 165.07 63.43
  Q 227.65 63.45 257.00 63.43
  Q 269.26 63.42 282.78 65.70
  C 306.97 69.78 330.42 83.95 341.98 105.90
  A 0.68 0.68 0.0 0 0 343.12 106.00
  L 375.35 64.20
  A 1.98 1.96 18.7 0 1 376.91 63.44
  Q 462.24 63.43 468.75 63.45
  C 485.52 63.49 502.20 66.35 517.14 74.11
  C 542.87 87.46 557.37 113.13 559.79 141.50
  Q 560.52 150.08 560.51 162.03
  Q 560.38 360.07 560.55 381.13
  A 0.63 0.63 0.0 0 1 559.92 381.76
  L 477.94 381.76
  A 0.71 0.71 0.0 0 1 477.23 381.05
  Q 477.20 173.53 477.24 171.81
  Q 477.41 162.86 475.96 158.48
  C 472.76 148.76 465.08 138.70 454.58 136.45
  Q 451.35 135.76 445.33 135.76
  Q 401.16 135.80 348.85 135.77
  A 0.46 0.45 90.0 0 0 348.40 136.23
  L 348.40 381.28
  A 0.48 0.47 90.0 0 1 347.93 381.76
  L 266.64 381.76
  A 0.85 0.85 0.0 0 1 265.79 380.91
  Q 265.80 177.16 265.77 166.00
  C 265.71 149.18 256.19 136.05 238.70 135.86
  Q 225.27 135.71 136.96 135.80
  A 0.26 0.26 0.0 0 0 136.70 136.06
  L 136.70 381.26
  A 0.50 0.50 0.0 0 1 136.20 381.76
  L 54.75 381.76
  A 0.79 0.78 90.0 0 1 53.97 380.97
  L 53.97 63.82
  A 0.38 0.37 90.0 0 1 54.34 63.44
  L 136.11 63.44
  A 0.60 0.60 0.0 0 1 136.71 64.04
  L 136.71 96.01
  Z"
/>
<path fill="#ca0203" d="
  M 110.70 439.05
  L 11.93 439.05
  A 0.81 0.81 0.0 0 1 11.12 438.24
  L 11.12 339.83
  A 0.81 0.81 0.0 0 1 11.93 339.02
  L 19.72 339.02
  A 0.81 0.81 0.0 0 1 20.53 339.83
  L 20.53 428.32
  A 0.81 0.81 0.0 0 0 21.34 429.13
  L 110.70 429.13
  A 0.81 0.81 0.0 0 1 111.51 429.94
  L 111.51 438.24
  A 0.81 0.81 0.0 0 1 110.70 439.05
  Z"
/>
<path fill="#ca0203" d="
  M 602.98 439.21
  Q 602.82 439.37 602.78 439.37
  Q 553.25 439.56 503.40 439.34
  A 0.16 0.16 0.0 0 1 503.24 439.18
  L 503.24 429.79
  A 0.18 0.18 0.0 0 1 503.42 429.61
  Q 547.67 429.59 592.00 429.58
  Q 592.84 429.58 593.09 429.32
  Q 593.35 429.07 593.35 428.23
  Q 593.37 383.90 593.39 339.65
  A 0.18 0.18 0.0 0 1 593.57 339.47
  L 602.96 339.47
  A 0.16 0.16 0.0 0 1 603.12 339.63
  Q 603.33 389.48 603.14 439.01
  Q 603.14 439.06 602.98 439.21
  Z"
/>
</svg>
