<?xml version="1.0" encoding="UTF-8" standalone="no"?>
<svg xmlns="http://www.w3.org/2000/svg" version="1.2" baseProfile="tiny" viewBox="0.00 0.00 670.00 78.00">
<g stroke-width="2.00" fill="none" stroke-linecap="butt">
<path stroke="#808080" vector-effect="non-scaling-stroke" d="
  M 394.37 41.20
  A 34.37 34.37 0.0 0 0 360.00 6.83
  A 34.37 34.37 0.0 0 0 325.63 41.20
  A 34.37 34.37 0.0 0 0 360.00 75.57
  A 34.37 34.37 0.0 0 0 394.37 41.20"
/>
<path stroke="#808080" vector-effect="non-scaling-stroke" d="
  M 34.33 71.91
  L 34.33 24.61
  A 0.51 0.51 0.0 0 1 34.84 24.10
  Q 50.35 24.11 51.81 24.11
  C 55.72 24.13 59.53 24.77 59.56 29.26
  Q 59.66 45.99 59.60 72.16
  A 0.45 0.45 0.0 0 0 60.05 72.61
  L 75.53 72.61
  A 0.47 0.47 0.0 0 0 76.00 72.14
  L 76.00 24.56
  A 0.44 0.44 0.0 0 1 76.44 24.12
  Q 86.39 24.08 92.91 24.11
  C 95.91 24.12 98.29 23.99 100.13 26.45
  Q 101.49 28.26 101.35 33.27
  Q 101.28 35.89 101.33 72.02
  A 0.58 0.58 0.0 0 0 101.91 72.60
  L 117.31 72.60
  A 0.53 0.52 -0.5 0 0 117.84 72.07
  Q 117.84 64.80 117.84 28.06
  Q 117.84 13.83 106.27 10.51
  Q 102.59 9.46 94.25 9.59
  Q 82.85 9.76 82.00 9.82
  A 1.78 1.77 17.0 0 0 80.71 10.50
  L 75.34 17.37
  A 0.53 0.53 0.0 0 1 74.48 17.34
  C 69.65 9.98 62.31 9.53 53.51 9.61
  Q 41.26 9.71 40.23 9.73
  A 1.84 1.82 18.1 0 0 38.83 10.43
  L 35.08 15.24
  A 0.45 0.45 0.0 0 1 34.28 14.96
  L 34.28 10.30
  A 0.64 0.64 0.0 0 0 33.64 9.66
  L 18.52 9.66
  A 0.64 0.63 0.0 0 0 17.88 10.29
  L 17.88 72.32
  A 0.28 0.28 0.0 0 0 18.16 72.60
  L 33.64 72.60
  A 0.69 0.69 0.0 0 0 34.33 71.91"
/>
<path stroke="#808080" vector-effect="non-scaling-stroke" d="
  M 188.49 10.12
  A 0.47 0.47 0.0 0 0 188.02 9.65
  L 138.12 9.65
  A 0.47 0.47 0.0 0 0 137.65 10.12
  L 137.65 72.11
  A 0.47 0.47 0.0 0 0 138.12 72.58
  L 188.01 72.58
  A 0.47 0.47 0.0 0 0 188.48 72.11
  L 188.48 59.81
  A 0.47 0.47 0.0 0 0 188.01 59.34
  L 154.02 59.34
  A 0.47 0.47 0.0 0 1 153.55 58.87
  L 153.55 46.77
  A 0.47 0.47 0.0 0 1 154.02 46.30
  L 183.56 46.30
  A 0.47 0.47 0.0 0 0 184.03 45.83
  L 184.03 33.19
  A 0.47 0.47 0.0 0 0 183.56 32.72
  L 154.00 32.72
  A 0.47 0.47 0.0 0 1 153.53 32.25
  L 153.53 23.57
  A 0.47 0.47 0.0 0 1 154.00 23.10
  L 188.02 23.10
  A 0.47 0.47 0.0 0 0 188.49 22.63
  L 188.49 10.12"
/>
<path stroke="#808080" vector-effect="non-scaling-stroke" d="
  M 224.39 71.87
  L 224.39 24.60
  A 0.51 0.51 0.0 0 1 224.90 24.09
  Q 240.40 24.10 241.86 24.10
  C 245.77 24.12 249.57 24.76 249.60 29.25
  Q 249.70 45.97 249.64 72.12
  A 0.45 0.45 0.0 0 0 250.09 72.57
  L 265.56 72.57
  A 0.47 0.47 0.0 0 0 266.03 72.10
  L 266.04 24.55
  A 0.44 0.44 0.0 0 1 266.48 24.11
  Q 276.42 24.07 282.94 24.10
  C 285.93 24.11 288.31 23.98 290.15 26.44
  Q 291.51 28.25 291.37 33.26
  Q 291.30 35.88 291.35 71.99
  A 0.58 0.58 0.0 0 0 291.93 72.56
  L 307.32 72.57
  A 0.53 0.52 -0.5 0 0 307.85 72.04
  Q 307.85 64.77 307.85 28.05
  Q 307.85 13.83 296.29 10.51
  Q 292.61 9.46 284.28 9.59
  Q 272.88 9.76 272.03 9.82
  A 1.78 1.77 17.0 0 0 270.74 10.50
  L 265.38 17.37
  A 0.53 0.53 0.0 0 1 264.52 17.34
  C 259.69 9.98 252.35 9.53 243.56 9.61
  Q 231.32 9.71 230.29 9.73
  A 1.84 1.81 18.1 0 0 228.89 10.43
  L 225.14 15.23
  A 0.45 0.45 0.0 0 1 224.34 14.95
  L 224.34 10.30
  A 0.64 0.64 0.0 0 0 223.70 9.66
  L 208.59 9.66
  A 0.64 0.63 0.0 0 0 207.95 10.29
  L 207.95 72.28
  A 0.28 0.28 0.0 0 0 208.23 72.56
  L 223.70 72.56
  A 0.69 0.69 0.0 0 0 224.39 71.87"
/>
<path stroke="#808080" vector-effect="non-scaling-stroke" d="
  M 475.66 72.03
  L 457.89 50.89
  A 0.50 0.50 0.0 0 1 458.01 50.14
  Q 466.13 45.23 468.28 36.75
  C 470.72 27.08 468.21 15.84 458.65 11.31
  Q 454.91 9.53 445.62 9.59
  Q 423.56 9.72 412.76 9.60
  A 0.64 0.63 -0.0 0 0 412.12 10.23
  L 412.12 71.96
  A 0.64 0.64 0.0 0 0 412.76 72.60
  L 427.68 72.60
  A 0.63 0.63 0.0 0 0 428.31 71.97
  L 428.26 40.74
  A 0.37 0.37 0.0 0 1 428.73 40.38
  Q 428.97 40.45 429.46 41.03
  Q 440.15 53.75 455.73 72.12
  A 1.34 1.32 69.5 0 0 456.74 72.59
  L 475.40 72.59
  A 0.34 0.34 0.0 0 0 475.66 72.03"
/>
<path stroke="#808080" vector-effect="non-scaling-stroke" d="
  M 504.2365 10.4658
  A 0.83 0.83 0.0 0 0 503.4051 9.6373
  L 488.7451 9.6628
  A 0.83 0.83 0.0 0 0 487.9165 10.4943
  L 488.0235 71.7742
  A 0.83 0.83 0.0 0 0 488.8549 72.6027
  L 503.5149 72.5772
  A 0.83 0.83 0.0 0 0 504.3435 71.7457
  L 504.2365 10.4658"
/>
<path stroke="#808080" vector-effect="non-scaling-stroke" d="
  M 544.44 35.86
  Q 535.32 46.18 524.16 59.44
  A 2.46 2.43 65.2 0 0 523.59 61.01
  L 523.59 72.12
  A 0.48 0.48 0.0 0 0 524.07 72.60
  L 576.79 72.60
  A 0.48 0.48 0.0 0 0 577.27 72.12
  L 577.27 59.61
  A 0.35 0.34 -90.0 0 0 576.93 59.26
  L 545.87 59.26
  A 0.35 0.34 20.4 0 1 545.61 58.69
  Q 552.63 50.70 556.42 46.41
  Q 565.54 36.09 576.70 22.83
  A 2.46 2.43 65.2 0 0 577.27 21.26
  L 577.27 10.15
  A 0.48 0.48 0.0 0 0 576.79 9.67
  L 524.07 9.67
  A 0.48 0.48 0.0 0 0 523.59 10.15
  L 523.59 22.66
  A 0.35 0.34 -90.0 0 0 523.93 23.01
  L 554.99 23.01
  A 0.35 0.34 20.4 0 1 555.25 23.58
  Q 548.23 31.58 544.44 35.86"
/>
<path stroke="#808080" vector-effect="non-scaling-stroke" d="
  M 596.74 10.39
  L 596.77 72.09
  A 0.52 0.52 0.0 0 0 597.29 72.61
  L 647.08 72.59
  A 0.55 0.55 0.0 0 0 647.63 72.04
  L 647.62 59.83
  A 0.48 0.48 0.0 0 0 647.14 59.35
  L 613.07 59.37
  A 0.41 0.40 90.0 0 1 612.67 58.96
  L 612.67 46.94
  A 0.63 0.63 0.0 0 1 613.30 46.31
  L 642.46 46.31
  A 0.70 0.70 0.0 0 0 643.16 45.61
  L 643.17 33.23
  A 0.51 0.51 0.0 0 0 642.66 32.72
  L 613.10 32.72
  A 0.47 0.46 90.0 0 1 612.64 32.25
  L 612.64 23.54
  A 0.44 0.44 0.0 0 1 613.08 23.10
  L 646.99 23.10
  A 0.63 0.63 0.0 0 0 647.62 22.47
  L 647.61 10.03
  A 0.40 0.40 0.0 0 0 647.21 9.63
  L 597.48 9.65
  A 0.74 0.74 0.0 0 0 596.74 10.39"
/>
<path stroke="#dc938d" vector-effect="non-scaling-stroke" d="
  M 379.33 41.18
  A 19.33 19.33 0.0 0 0 360.00 21.85
  A 19.33 19.33 0.0 0 0 340.67 41.18
  A 19.33 19.33 0.0 0 0 360.00 60.51
  A 19.33 19.33 0.0 0 0 379.33 41.18"
/>
<path stroke="#808080" vector-effect="non-scaling-stroke" d="
  M 428.26 24.81
  L 428.32 37.57
  A 0.68 0.68 0.0 0 0 429.01 38.24
  L 448.86 38.14
  A 6.20 4.81 89.7 0 0 453.63 31.91
  L 453.63 30.19
  A 6.20 4.81 89.7 0 0 448.78 24.02
  L 428.93 24.12
  A 0.68 0.68 0.0 0 0 428.26 24.81"
/>
</g>
<path fill="#000000" d="
  M 670.00 0.00
  L 670.00 78.00
  L 0.00 78.00
  L 0.00 0.00
  L 670.00 0.00
  Z
  M 394.37 41.20
  A 34.37 34.37 0.0 0 0 360.00 6.83
  A 34.37 34.37 0.0 0 0 325.63 41.20
  A 34.37 34.37 0.0 0 0 360.00 75.57
  A 34.37 34.37 0.0 0 0 394.37 41.20
  Z
  M 34.33 71.91
  L 34.33 24.61
  A 0.51 0.51 0.0 0 1 34.84 24.10
  Q 50.35 24.11 51.81 24.11
  C 55.72 24.13 59.53 24.77 59.56 29.26
  Q 59.66 45.99 59.60 72.16
  A 0.45 0.45 0.0 0 0 60.05 72.61
  L 75.53 72.61
  A 0.47 0.47 0.0 0 0 76.00 72.14
  L 76.00 24.56
  A 0.44 0.44 0.0 0 1 76.44 24.12
  Q 86.39 24.08 92.91 24.11
  C 95.91 24.12 98.29 23.99 100.13 26.45
  Q 101.49 28.26 101.35 33.27
  Q 101.28 35.89 101.33 72.02
  A 0.58 0.58 0.0 0 0 101.91 72.60
  L 117.31 72.60
  A 0.53 0.52 -0.5 0 0 117.84 72.07
  Q 117.84 64.80 117.84 28.06
  Q 117.84 13.83 106.27 10.51
  Q 102.59 9.46 94.25 9.59
  Q 82.85 9.76 82.00 9.82
  A 1.78 1.77 17.0 0 0 80.71 10.50
  L 75.34 17.37
  A 0.53 0.53 0.0 0 1 74.48 17.34
  C 69.65 9.98 62.31 9.53 53.51 9.61
  Q 41.26 9.71 40.23 9.73
  A 1.84 1.82 18.1 0 0 38.83 10.43
  L 35.08 15.24
  A 0.45 0.45 0.0 0 1 34.28 14.96
  L 34.28 10.30
  A 0.64 0.64 0.0 0 0 33.64 9.66
  L 18.52 9.66
  A 0.64 0.63 0.0 0 0 17.88 10.29
  L 17.88 72.32
  A 0.28 0.28 0.0 0 0 18.16 72.60
  L 33.64 72.60
  A 0.69 0.69 0.0 0 0 34.33 71.91
  Z
  M 188.49 10.12
  A 0.47 0.47 0.0 0 0 188.02 9.65
  L 138.12 9.65
  A 0.47 0.47 0.0 0 0 137.65 10.12
  L 137.65 72.11
  A 0.47 0.47 0.0 0 0 138.12 72.58
  L 188.01 72.58
  A 0.47 0.47 0.0 0 0 188.48 72.11
  L 188.48 59.81
  A 0.47 0.47 0.0 0 0 188.01 59.34
  L 154.02 59.34
  A 0.47 0.47 0.0 0 1 153.55 58.87
  L 153.55 46.77
  A 0.47 0.47 0.0 0 1 154.02 46.30
  L 183.56 46.30
  A 0.47 0.47 0.0 0 0 184.03 45.83
  L 184.03 33.19
  A 0.47 0.47 0.0 0 0 183.56 32.72
  L 154.00 32.72
  A 0.47 0.47 0.0 0 1 153.53 32.25
  L 153.53 23.57
  A 0.47 0.47 0.0 0 1 154.00 23.10
  L 188.02 23.10
  A 0.47 0.47 0.0 0 0 188.49 22.63
  L 188.49 10.12
  Z
  M 224.39 71.87
  L 224.39 24.60
  A 0.51 0.51 0.0 0 1 224.90 24.09
  Q 240.40 24.10 241.86 24.10
  C 245.77 24.12 249.57 24.76 249.60 29.25
  Q 249.70 45.97 249.64 72.12
  A 0.45 0.45 0.0 0 0 250.09 72.57
  L 265.56 72.57
  A 0.47 0.47 0.0 0 0 266.03 72.10
  L 266.04 24.55
  A 0.44 0.44 0.0 0 1 266.48 24.11
  Q 276.42 24.07 282.94 24.10
  C 285.93 24.11 288.31 23.98 290.15 26.44
  Q 291.51 28.25 291.37 33.26
  Q 291.30 35.88 291.35 71.99
  A 0.58 0.58 0.0 0 0 291.93 72.56
  L 307.32 72.57
  A 0.53 0.52 -0.5 0 0 307.85 72.04
  Q 307.85 64.77 307.85 28.05
  Q 307.85 13.83 296.29 10.51
  Q 292.61 9.46 284.28 9.59
  Q 272.88 9.76 272.03 9.82
  A 1.78 1.77 17.0 0 0 270.74 10.50
  L 265.38 17.37
  A 0.53 0.53 0.0 0 1 264.52 17.34
  C 259.69 9.98 252.35 9.53 243.56 9.61
  Q 231.32 9.71 230.29 9.73
  A 1.84 1.81 18.1 0 0 228.89 10.43
  L 225.14 15.23
  A 0.45 0.45 0.0 0 1 224.34 14.95
  L 224.34 10.30
  A 0.64 0.64 0.0 0 0 223.70 9.66
  L 208.59 9.66
  A 0.64 0.63 0.0 0 0 207.95 10.29
  L 207.95 72.28
  A 0.28 0.28 0.0 0 0 208.23 72.56
  L 223.70 72.56
  A 0.69 0.69 0.0 0 0 224.39 71.87
  Z
  M 475.66 72.03
  L 457.89 50.89
  A 0.50 0.50 0.0 0 1 458.01 50.14
  Q 466.13 45.23 468.28 36.75
  C 470.72 27.08 468.21 15.84 458.65 11.31
  Q 454.91 9.53 445.62 9.59
  Q 423.56 9.72 412.76 9.60
  A 0.64 0.63 -0.0 0 0 412.12 10.23
  L 412.12 71.96
  A 0.64 0.64 0.0 0 0 412.76 72.60
  L 427.68 72.60
  A 0.63 0.63 0.0 0 0 428.31 71.97
  L 428.26 40.74
  A 0.37 0.37 0.0 0 1 428.73 40.38
  Q 428.97 40.45 429.46 41.03
  Q 440.15 53.75 455.73 72.12
  A 1.34 1.32 69.5 0 0 456.74 72.59
  L 475.40 72.59
  A 0.34 0.34 0.0 0 0 475.66 72.03
  Z
  M 504.2365 10.4658
  A 0.83 0.83 0.0 0 0 503.4051 9.6373
  L 488.7451 9.6628
  A 0.83 0.83 0.0 0 0 487.9165 10.4943
  L 488.0235 71.7742
  A 0.83 0.83 0.0 0 0 488.8549 72.6027
  L 503.5149 72.5772
  A 0.83 0.83 0.0 0 0 504.3435 71.7457
  L 504.2365 10.4658
  Z
  M 544.44 35.86
  Q 535.32 46.18 524.16 59.44
  A 2.46 2.43 65.2 0 0 523.59 61.01
  L 523.59 72.12
  A 0.48 0.48 0.0 0 0 524.07 72.60
  L 576.79 72.60
  A 0.48 0.48 0.0 0 0 577.27 72.12
  L 577.27 59.61
  A 0.35 0.34 -90.0 0 0 576.93 59.26
  L 545.87 59.26
  A 0.35 0.34 20.4 0 1 545.61 58.69
  Q 552.63 50.70 556.42 46.41
  Q 565.54 36.09 576.70 22.83
  A 2.46 2.43 65.2 0 0 577.27 21.26
  L 577.27 10.15
  A 0.48 0.48 0.0 0 0 576.79 9.67
  L 524.07 9.67
  A 0.48 0.48 0.0 0 0 523.59 10.15
  L 523.59 22.66
  A 0.35 0.34 -90.0 0 0 523.93 23.01
  L 554.99 23.01
  A 0.35 0.34 20.4 0 1 555.25 23.58
  Q 548.23 31.58 544.44 35.86
  Z
  M 596.74 10.39
  L 596.77 72.09
  A 0.52 0.52 0.0 0 0 597.29 72.61
  L 647.08 72.59
  A 0.55 0.55 0.0 0 0 647.63 72.04
  L 647.62 59.83
  A 0.48 0.48 0.0 0 0 647.14 59.35
  L 613.07 59.37
  A 0.41 0.40 90.0 0 1 612.67 58.96
  L 612.67 46.94
  A 0.63 0.63 0.0 0 1 613.30 46.31
  L 642.46 46.31
  A 0.70 0.70 0.0 0 0 643.16 45.61
  L 643.17 33.23
  A 0.51 0.51 0.0 0 0 642.66 32.72
  L 613.10 32.72
  A 0.47 0.46 90.0 0 1 612.64 32.25
  L 612.64 23.54
  A 0.44 0.44 0.0 0 1 613.08 23.10
  L 646.99 23.10
  A 0.63 0.63 0.0 0 0 647.62 22.47
  L 647.61 10.03
  A 0.40 0.40 0.0 0 0 647.21 9.63
  L 597.48 9.65
  A 0.74 0.74 0.0 0 0 596.74 10.39
  Z"
/>
<path fill="#ffffff" d="
  M 394.37 41.20
  A 34.37 34.37 0.0 0 1 360.00 75.57
  A 34.37 34.37 0.0 0 1 325.63 41.20
  A 34.37 34.37 0.0 0 1 360.00 6.83
  A 34.37 34.37 0.0 0 1 394.37 41.20
  Z
  M 379.33 41.18
  A 19.33 19.33 0.0 0 0 360.00 21.85
  A 19.33 19.33 0.0 0 0 340.67 41.18
  A 19.33 19.33 0.0 0 0 360.00 60.51
  A 19.33 19.33 0.0 0 0 379.33 41.18
  Z"
/>
<path fill="#ffffff" d="
  M 33.64 72.60
  L 18.16 72.60
  A 0.28 0.28 0.0 0 1 17.88 72.32
  L 17.88 10.29
  A 0.64 0.63 0.0 0 1 18.52 9.66
  L 33.64 9.66
  A 0.64 0.64 0.0 0 1 34.28 10.30
  L 34.28 14.96
  A 0.45 0.45 0.0 0 0 35.08 15.24
  L 38.83 10.43
  A 1.84 1.82 18.1 0 1 40.23 9.73
  Q 41.26 9.71 53.51 9.61
  C 62.31 9.53 69.65 9.98 74.48 17.34
  A 0.53 0.53 0.0 0 0 75.34 17.37
  L 80.71 10.50
  A 1.78 1.77 17.0 0 1 82.00 9.82
  Q 82.85 9.76 94.25 9.59
  Q 102.59 9.46 106.27 10.51
  Q 117.84 13.83 117.84 28.06
  Q 117.84 64.80 117.84 72.07
  A 0.53 0.52 -0.5 0 1 117.31 72.60
  L 101.91 72.60
  A 0.58 0.58 0.0 0 1 101.33 72.02
  Q 101.28 35.89 101.35 33.27
  Q 101.49 28.26 100.13 26.45
  C 98.29 23.99 95.91 24.12 92.91 24.11
  Q 86.39 24.08 76.44 24.12
  A 0.44 0.44 0.0 0 0 76.00 24.56
  L 76.00 72.14
  A 0.47 0.47 0.0 0 1 75.53 72.61
  L 60.05 72.61
  A 0.45 0.45 0.0 0 1 59.60 72.16
  Q 59.66 45.99 59.56 29.26
  C 59.53 24.77 55.72 24.13 51.81 24.11
  Q 50.35 24.11 34.84 24.10
  A 0.51 0.51 0.0 0 0 34.33 24.61
  L 34.33 71.91
  A 0.69 0.69 0.0 0 1 33.64 72.60
  Z"
/>
<path fill="#ffffff" d="
  M 188.49 10.12
  L 188.49 22.63
  A 0.47 0.47 0.0 0 1 188.02 23.10
  L 154.00 23.10
  A 0.47 0.47 0.0 0 0 153.53 23.57
  L 153.53 32.25
  A 0.47 0.47 0.0 0 0 154.00 32.72
  L 183.56 32.72
  A 0.47 0.47 0.0 0 1 184.03 33.19
  L 184.03 45.83
  A 0.47 0.47 0.0 0 1 183.56 46.30
  L 154.02 46.30
  A 0.47 0.47 0.0 0 0 153.55 46.77
  L 153.55 58.87
  A 0.47 0.47 0.0 0 0 154.02 59.34
  L 188.01 59.34
  A 0.47 0.47 0.0 0 1 188.48 59.81
  L 188.48 72.11
  A 0.47 0.47 0.0 0 1 188.01 72.58
  L 138.12 72.58
  A 0.47 0.47 0.0 0 1 137.65 72.11
  L 137.65 10.12
  A 0.47 0.47 0.0 0 1 138.12 9.65
  L 188.02 9.65
  A 0.47 0.47 0.0 0 1 188.49 10.12
  Z"
/>
<path fill="#ffffff" d="
  M 224.39 71.87
  A 0.69 0.69 0.0 0 1 223.70 72.56
  L 208.23 72.56
  A 0.28 0.28 0.0 0 1 207.95 72.28
  L 207.95 10.29
  A 0.64 0.63 0.0 0 1 208.59 9.66
  L 223.70 9.66
  A 0.64 0.64 0.0 0 1 224.34 10.30
  L 224.34 14.95
  A 0.45 0.45 0.0 0 0 225.14 15.23
  L 228.89 10.43
  A 1.84 1.81 18.1 0 1 230.29 9.73
  Q 231.32 9.71 243.56 9.61
  C 252.35 9.53 259.69 9.98 264.52 17.34
  A 0.53 0.53 0.0 0 0 265.38 17.37
  L 270.74 10.50
  A 1.78 1.77 17.0 0 1 272.03 9.82
  Q 272.88 9.76 284.28 9.59
  Q 292.61 9.46 296.29 10.51
  Q 307.85 13.83 307.85 28.05
  Q 307.85 64.77 307.85 72.04
  A 0.53 0.52 -0.5 0 1 307.32 72.57
  L 291.93 72.56
  A 0.58 0.58 0.0 0 1 291.35 71.99
  Q 291.30 35.88 291.37 33.26
  Q 291.51 28.25 290.15 26.44
  C 288.31 23.98 285.93 24.11 282.94 24.10
  Q 276.42 24.07 266.48 24.11
  A 0.44 0.44 0.0 0 0 266.04 24.55
  L 266.03 72.10
  A 0.47 0.47 0.0 0 1 265.56 72.57
  L 250.09 72.57
  A 0.45 0.45 0.0 0 1 249.64 72.12
  Q 249.70 45.97 249.60 29.25
  C 249.57 24.76 245.77 24.12 241.86 24.10
  Q 240.40 24.10 224.90 24.09
  A 0.51 0.51 0.0 0 0 224.39 24.60
  L 224.39 71.87
  Z"
/>
<path fill="#ffffff" d="
  M 475.66 72.03
  A 0.34 0.34 0.0 0 1 475.40 72.59
  L 456.74 72.59
  A 1.34 1.32 69.5 0 1 455.73 72.12
  Q 440.15 53.75 429.46 41.03
  Q 428.97 40.45 428.73 40.38
  A 0.37 0.37 0.0 0 0 428.26 40.74
  L 428.31 71.97
  A 0.63 0.63 0.0 0 1 427.68 72.60
  L 412.76 72.60
  A 0.64 0.64 0.0 0 1 412.12 71.96
  L 412.12 10.23
  A 0.64 0.63 0.0 0 1 412.76 9.60
  Q 423.56 9.72 445.62 9.59
  Q 454.91 9.53 458.65 11.31
  C 468.21 15.84 470.72 27.08 468.28 36.75
  Q 466.13 45.23 458.01 50.14
  A 0.50 0.50 0.0 0 0 457.89 50.89
  L 475.66 72.03
  Z
  M 428.26 24.81
  L 428.32 37.57
  A 0.68 0.68 0.0 0 0 429.01 38.24
  L 448.86 38.14
  A 6.20 4.81 89.7 0 0 453.63 31.91
  L 453.63 30.19
  A 6.20 4.81 89.7 0 0 448.78 24.02
  L 428.93 24.12
  A 0.68 0.68 0.0 0 0 428.26 24.81
  Z"
/>
<rect fill="#ffffff" x="-8.16" y="-31.47" transform="translate(496.13,41.12) rotate(-0.1)" width="16.32" height="62.94" rx="0.83"/>
<path fill="#ffffff" d="
  M 556.42 46.41
  Q 552.63 50.70 545.61 58.69
  A 0.35 0.34 20.4 0 0 545.87 59.26
  L 576.93 59.26
  A 0.35 0.34 90.0 0 1 577.27 59.61
  L 577.27 72.12
  A 0.48 0.48 0.0 0 1 576.79 72.60
  L 524.07 72.60
  A 0.48 0.48 0.0 0 1 523.59 72.12
  L 523.59 61.01
  A 2.46 2.43 65.2 0 1 524.16 59.44
  Q 535.32 46.18 544.44 35.86
  Q 548.23 31.58 555.25 23.58
  A 0.35 0.34 20.4 0 0 554.99 23.01
  L 523.93 23.01
  A 0.35 0.34 90.0 0 1 523.59 22.66
  L 523.59 10.15
  A 0.48 0.48 0.0 0 1 524.07 9.67
  L 576.79 9.67
  A 0.48 0.48 0.0 0 1 577.27 10.15
  L 577.27 21.26
  A 2.46 2.43 65.2 0 1 576.70 22.83
  Q 565.54 36.09 556.42 46.41
  Z"
/>
<path fill="#ffffff" d="
  M 596.74 10.39
  A 0.74 0.74 0.0 0 1 597.48 9.65
  L 647.21 9.63
  A 0.40 0.40 0.0 0 1 647.61 10.03
  L 647.62 22.47
  A 0.63 0.63 0.0 0 1 646.99 23.10
  L 613.08 23.10
  A 0.44 0.44 0.0 0 0 612.64 23.54
  L 612.64 32.25
  A 0.47 0.46 90.0 0 0 613.10 32.72
  L 642.66 32.72
  A 0.51 0.51 0.0 0 1 643.17 33.23
  L 643.16 45.61
  A 0.70 0.70 0.0 0 1 642.46 46.31
  L 613.30 46.31
  A 0.63 0.63 0.0 0 0 612.67 46.94
  L 612.67 58.96
  A 0.41 0.40 90.0 0 0 613.07 59.37
  L 647.14 59.35
  A 0.48 0.48 0.0 0 1 647.62 59.83
  L 647.63 72.04
  A 0.55 0.55 0.0 0 1 647.08 72.59
  L 597.29 72.61
  A 0.52 0.52 0.0 0 1 596.77 72.09
  L 596.74 10.39
  Z"
/>
<circle fill="#b9271b" cx="360.00" cy="41.18" r="19.33"/>
<path fill="#000000" d="
  M 428.26 24.81
  A 0.68 0.68 0.0 0 1 428.93 24.12
  L 448.78 24.02
  A 6.20 4.81 89.7 0 1 453.63 30.19
  L 453.63 31.91
  A 6.20 4.81 89.7 0 1 448.86 38.14
  L 429.01 38.24
  A 0.68 0.68 0.0 0 1 428.32 37.57
  L 428.26 24.81
  Z"
/>
</svg>
